<svg xmlns="http://www.w3.org/2000/svg" viewBox="0 0 512.007 512.007"><path d="M501.333.004H10.667C4.779.004 0 4.782 0 10.67v490.667c0 5.888 4.779 10.667 10.667 10.667h490.667c5.888 0 10.667-4.779 10.667-10.667V10.67C512 4.782 507.221.004 501.333.004zM490.667 490.67H21.333V21.337h469.333V490.67z"/><path d="M509.589 378.457L360.256 195.929a10.598 10.598 0 0 0-8.213-3.925H352a10.651 10.651 0 0 0-8.171 3.819l-50.901 61.056c-3.776 4.544-3.179 11.264 1.344 15.04 4.544 3.755 11.264 3.179 15.019-1.365l42.624-51.136L493.077 391.94a10.634 10.634 0 0 0 8.256 3.925c2.368 0 4.779-.789 6.763-2.389 4.565-3.755 5.227-10.475 1.493-15.019z"/><path d="M381.589 345.262l-192-234.667c-4.032-4.949-12.459-4.949-16.491 0L2.432 319.193c-3.733 4.565-3.072 11.285 1.493 15.019 4.544 3.712 11.264 3.051 14.997-1.515L181.333 134.19l183.744 224.555a10.634 10.634 0 0 0 8.256 3.925c2.368 0 4.779-.789 6.763-2.389 4.565-3.755 5.227-10.475 1.493-15.019z"/></svg>