<svg xmlns="http://www.w3.org/2000/svg" viewBox="0 0 512.03 512.03"><path d="M494.308 227.401l-448-224c-9.963-4.992-21.611-4.459-31.125 1.408C5.69 10.675.015 20.851.015 32.009v448c0 11.157 5.675 21.333 15.168 27.2a31.833 31.833 0 0 0 16.832 4.821 32.15 32.15 0 0 0 14.315-3.392l448-224c10.901-5.461 17.685-16.427 17.685-28.629s-6.784-23.169-17.707-28.608zm-9.514 38.143l-448 224c-4.8 2.432-8.853.448-10.389-.469-1.515-.939-5.056-3.712-5.056-9.067v-448c0-5.355 3.541-8.128 5.035-9.067 1.003-.597 3.029-1.621 5.653-1.621 1.451 0 3.051.299 4.757 1.152l448 224c3.669 1.835 5.888 5.419 5.888 9.536s-2.219 7.702-5.888 9.536z"/></svg>